<?xml version="1.0" encoding="iso-8859-1"?>
<svg xmlns="http://www.w3.org/2000/svg" xmlns:xlink="http://www.w3.org/1999/xlink" version="1.1" id="Layer_1" x="0px" y="0px" viewBox="0 0 24 24" style="enable-background:new 0 0 24 24;" xml:space="preserve">
<g id="XMLID_1817_">
	<g id="XMLID_1781_">
		<path id="XMLID_1790_" style="fill:#E4E5E6;" d="M19.079,7.43c-1.8,0.27-0.65,3.45-1.43,4.03c-0.78,0.59-2.28,1.02-3.33,2.94    c-0.95,1.71-0.6,3.02-0.22,3.82c0.13,0.27,0.27,0.49,0.38,0.76l-2.93-2.75l-3.12-2.94l10.26-9.1    C19.359,4.79,20.869,7.16,19.079,7.43z"/>
		<path id="XMLID_1786_" style="fill:#9D581F;" d="M1.997,18.995c-0.64,0.575-0.667,1.569-0.059,2.177l0.888,0.888    c0.558,0.558,1.454,0.588,2.048,0.068l6.678-5.903l-3.121-2.936L1.997,18.995z"/>
		<path id="XMLID_1776_" style="opacity:0.5;fill:#FFFFFF;enable-background:new    ;" d="M19.697,5.655    c-0.269-0.611-0.717-1.204-1.008-1.465l-10.26,9.1l1.289,1.215L19.697,5.655z"/>
		<path id="XMLID_1787_" style="opacity:0.2;fill:#FFFFFF;enable-background:new    ;" d="M3.247,20.245l6.435-5.706l1.83,1.722    l0.04-0.036l-3.121-2.936l-6.435,5.706c-0.64,0.575-0.667,1.569-0.059,2.177l0.888,0.888c0.047,0.047,0.107,0.068,0.158,0.107    C2.598,21.563,2.69,20.745,3.247,20.245z"/>
		<path id="XMLID_1791_" style="fill:#D51C29;" d="M22.499,6c0,3.06-1.35,5.89-3.89,8.15c-1.8,1.75-2.61,3.37-2.25,6.5    c0.04,0.3,0.1,0.6,0.14,0.89c0,0.55-0.39,0.96-1,0.96s-1-0.45-1-1c0.27-1.4,0.17-2.04-0.02-2.52c-0.11-0.27-0.25-0.49-0.38-0.76    c-0.38-0.8-0.73-2.11,0.22-3.82c1.05-1.92,2.55-2.35,3.33-2.94c0.78-0.58-0.37-3.76,1.43-4.03c1.79-0.27,0.28-2.64-0.39-3.24    l2.81-2.69C22.159,3.03,22.499,4.71,22.499,6z"/>
		<path id="XMLID_1779_" style="opacity:0.1;enable-background:new    ;" d="M21.499,1.5l-1.106,1.059    C20.791,3.773,20.999,5.002,20.999,6c0,3.06-1.35,5.89-3.89,8.15c-1.8,1.75-2.61,3.37-2.25,6.5c0.04,0.3,0.1,0.6,0.14,0.89    c0,0.256-0.092,0.476-0.243,0.644c0.174,0.193,0.427,0.316,0.743,0.316c0.61,0,1-0.41,1-0.96c-0.04-0.29-0.1-0.59-0.14-0.89    c-0.36-3.13,0.45-4.75,2.25-6.5c2.54-2.26,3.89-5.09,3.89-8.15C22.499,4.71,22.159,3.03,21.499,1.5z"/>
		<path id="XMLID_1789_" style="fill:#D51C29;" d="M19.499,18c0,0.828,0.672,1.5,1.5,1.5s1.5-0.672,1.5-1.5s-1.5-2.5-1.5-2.5    S19.499,17.172,19.499,18z"/>
		<path id="XMLID_1782_" style="opacity:0.1;enable-background:new    ;" d="M20.999,15.5c0,0-0.225,0.252-0.5,0.606    c0.436,0.562,1,1.385,1,1.894c0,0.652-0.419,1.202-1,1.408c0.157,0.056,0.324,0.092,0.5,0.092c0.828,0,1.5-0.672,1.5-1.5    S20.999,15.5,20.999,15.5z"/>
	</g>
	<g id="XMLID_1358_">
		
			<ellipse id="XMLID_1436_" transform="matrix(0.7071 0.7071 -0.7071 0.7071 15.5205 3.5286)" style="fill:#303C42;" cx="3.501" cy="20.499" rx="0.503" ry="0.497"/>
		<path id="XMLID_1440_" style="fill:#303C42;" d="M22.999,6c0-1.419-0.389-3.175-1.04-4.697c-0.064-0.151-0.199-0.26-0.36-0.293    c-0.161-0.031-0.327,0.016-0.445,0.129L18.36,3.82l0,0L1.664,18.624c-0.413,0.371-0.648,0.88-0.663,1.435s0.192,1.076,0.585,1.468    l0.888,0.888c0.388,0.388,0.9,0.583,1.414,0.583c0.47,0,0.941-0.164,1.32-0.495l6.322-5.613l2.514,2.366    c0.144,0.417,0.188,0.992-0.044,2.244c0,0.855,0.645,1.5,1.5,1.5c0.869,0,1.5-0.613,1.494-1.531l-0.049-0.306    c-0.03-0.188-0.062-0.378-0.084-0.574c-0.355-3.053,0.463-4.494,2.082-6.068C21.596,12.157,22.999,9.21,22.999,6z M13.259,17.144    l-4.085-3.843l9.479-8.405c0.418,0.532,0.875,1.388,0.752,1.802C19.389,6.748,19.35,6.882,19,6.935    c-1.506,0.229-1.521,1.866-1.532,2.95c-0.003,0.395-0.01,1.055-0.121,1.179c-0.176,0.133-0.394,0.255-0.635,0.394    c-0.833,0.478-1.974,1.131-2.836,2.699C13.319,15.17,13.119,16.17,13.259,17.144z M4.546,21.752    C4.15,22.098,3.55,22.077,3.18,21.707l-0.888-0.888c-0.196-0.196-0.3-0.457-0.292-0.734c0.007-0.277,0.125-0.532,0.329-0.715    l6.093-5.402l2.375,2.235L4.546,21.752z M15.866,20.704c0.024,0.212,0.059,0.418,0.092,0.622l0.041,0.217    c0,0.29-0.183,0.457-0.5,0.457c-0.369,0-0.5-0.27-0.509-0.406c0.389-2.041,0.043-2.682-0.291-3.301    c-0.05-0.092-0.101-0.186-0.149-0.287c-0.515-1.081-0.449-2.182,0.203-3.367c0.727-1.322,1.686-1.872,2.456-2.313    c0.281-0.161,0.533-0.308,0.739-0.462c0.505-0.38,0.512-1.151,0.52-1.968c0.013-1.293,0.114-1.885,0.683-1.971    c0.851-0.129,1.125-0.645,1.213-0.94c0.265-0.89-0.419-2.087-0.973-2.768l1.916-1.838C21.745,3.602,21.999,4.914,21.999,6    c0,2.917-1.287,5.605-3.738,7.79C16.486,15.515,15.468,17.273,15.866,20.704z"/>
		<path id="XMLID_1447_" style="fill:#303C42;" d="M20.627,15.166c-0.272,0.303-1.628,1.863-1.628,2.834c0,1.103,0.897,2,2,2    s2-0.897,2-2c0-0.971-1.356-2.531-1.628-2.834C21.182,14.955,20.816,14.955,20.627,15.166z M20.999,19c-0.552,0-1-0.449-1-1    c0-0.319,0.47-1.063,1-1.726c0.531,0.666,1,1.416,1,1.726C21.999,18.551,21.551,19,20.999,19z"/>
	</g>
	<linearGradient id="XMLID_2_" gradientUnits="userSpaceOnUse" x1="5.9949" y1="8.9538" x2="23.5966" y2="17.1616">
		<stop offset="0" style="stop-color:#FFFFFF;stop-opacity:0.2"/>
		<stop offset="1" style="stop-color:#FFFFFF;stop-opacity:0"/>
	</linearGradient>
	<path id="XMLID_1794_" style="fill:url(#XMLID_2_);" d="M22.999,6c0-1.419-0.389-3.175-1.04-4.697   c-0.064-0.151-0.199-0.26-0.36-0.293c-0.161-0.031-0.327,0.016-0.445,0.129L18.36,3.82l0,0L1.664,18.624   c-0.413,0.371-0.648,0.88-0.663,1.435s0.192,1.076,0.585,1.468l0.888,0.888c0.388,0.388,0.9,0.583,1.414,0.583   c0.47,0,0.941-0.164,1.32-0.495l6.322-5.613l2.514,2.366c0.144,0.417,0.188,0.992-0.044,2.244c0,0.855,0.645,1.5,1.5,1.5   c0.869,0,1.5-0.613,1.494-1.531l-0.049-0.306c-0.03-0.188-0.062-0.378-0.084-0.574c-0.355-3.053,0.463-4.494,2.082-6.068   C21.596,12.157,22.999,9.21,22.999,6z M20.627,15.166c-0.272,0.303-1.628,1.863-1.628,2.834c0,1.103,0.897,2,2,2s2-0.897,2-2   c0-0.971-1.356-2.531-1.628-2.834C21.182,14.955,20.816,14.955,20.627,15.166z"/>
</g>

	
	<metadata>
		<rdf:RDF xmlns:rdf="http://www.w3.org/1999/02/22-rdf-syntax-ns#" xmlns:rdfs="http://www.w3.org/2000/01/rdf-schema#" xmlns:dc="http://purl.org/dc/elements/1.1/">
			<rdf:Description about="https://iconscout.com/legal#licenses" dc:title="Knife, Blood, Blody, Kill, Halloween" dc:description="Knife, Blood, Blody, Kill, Halloween" dc:publisher="Iconscout" dc:date="2016-12-14" dc:format="image/svg+xml" dc:language="en">
				<dc:creator>
					<rdf:Bag>
						<rdf:li>Alpár - Etele Méder</rdf:li>
					</rdf:Bag>
				</dc:creator>
			</rdf:Description>
		</rdf:RDF>
    </metadata></svg>
