<?xml version="1.0" standalone="no"?>
<!DOCTYPE svg PUBLIC "-//W3C//DTD SVG 20010904//EN"
 "http://www.w3.org/TR/2001/REC-SVG-20010904/DTD/svg10.dtd">
<svg version="1.0" xmlns="http://www.w3.org/2000/svg"
 width="512.000000pt" height="512.000000pt" viewBox="0 0 512.000000 512.000000"
 preserveAspectRatio="xMidYMid meet">
<metadata>
Created by potrace 1.11, written by Peter Selinger 2001-2013
</metadata>
<g transform="translate(0.000000,512.000000) scale(0.100000,-0.100000)"
fill="#000000" stroke="none">
<path d="M2395 5114 c-381 -38 -671 -116 -960 -258 -678 -334 -1164 -933
-1355 -1673 -53 -204 -73 -372 -74 -618 0 -236 13 -363 60 -570 62 -278 197
-596 351 -830 107 -161 185 -258 317 -393 391 -400 894 -657 1458 -743 189
-29 523 -32 703 -5 482 70 914 257 1280 553 117 95 295 274 385 388 278 351
462 776 531 1227 29 189 32 523 5 703 -68 470 -252 901 -536 1260 -90 114
-268 293 -385 388 -358 289 -790 480 -1242 547 -131 19 -444 34 -538 24z m380
-404 c94 -11 197 -27 230 -35 33 -9 79 -20 102 -25 58 -13 243 -77 290 -101
20 -10 43 -19 50 -19 7 0 13 -4 13 -8 0 -4 23 -16 50 -26 28 -10 52 -22 55
-27 3 -5 25 -17 48 -27 36 -16 98 -53 132 -79 6 -5 30 -21 54 -37 38 -25 215
-195 277 -267 41 -48 130 -185 161 -249 57 -119 83 -179 83 -193 0 -8 11 -48
25 -89 51 -151 28 -408 -69 -758 -28 -101 -120 -367 -137 -395 -21 -35 -30
-86 -38 -218 -5 -70 -13 -133 -18 -140 -6 -6 -13 -28 -17 -49 -14 -80 -129
-207 -206 -228 -22 -6 -42 -15 -45 -19 -3 -5 -40 -17 -83 -26 -42 -10 -91 -24
-109 -31 -17 -8 -42 -14 -55 -14 -32 0 -94 -23 -124 -46 -22 -16 -27 -31 -35
-99 -5 -44 -16 -94 -24 -112 -10 -20 -17 -81 -22 -170 l-6 -138 -45 -43 c-43
-41 -45 -46 -48 -105 -4 -79 -23 -195 -34 -202 -4 -3 -16 -30 -26 -61 -9 -31
-23 -58 -31 -61 -7 -3 -13 -11 -13 -18 0 -47 -198 -166 -314 -188 -80 -16
-502 -16 -582 0 -116 22 -314 141 -314 188 0 7 -6 15 -13 18 -8 3 -22 30 -31
61 -10 31 -22 58 -26 61 -11 7 -30 123 -34 203 -3 61 -5 65 -48 105 l-45 42
-5 136 c-4 94 -10 146 -21 170 -9 19 -21 70 -26 114 -8 67 -14 83 -36 102 -14
13 -35 23 -45 23 -10 0 -21 4 -24 9 -3 4 -28 11 -55 14 -27 3 -58 10 -68 16
-10 5 -53 17 -95 26 -43 9 -80 20 -83 25 -3 5 -23 14 -45 20 -77 21 -192 148
-206 228 -4 21 -11 43 -17 49 -5 7 -13 70 -18 140 -8 129 -19 193 -37 216 -5
7 -17 37 -26 67 -10 30 -21 64 -26 75 -17 37 -61 170 -85 255 -13 47 -28 101
-34 120 -23 83 -31 182 -31 408 0 248 7 307 46 392 64 136 95 195 143 265 53
79 61 89 118 152 15 17 35 40 44 50 14 16 92 88 154 142 11 10 34 26 50 37 17
10 35 22 40 27 33 25 96 63 132 79 23 10 45 22 48 27 3 5 27 17 55 27 27 10
50 22 50 26 0 4 6 8 13 8 7 0 30 9 50 19 47 24 232 88 290 101 23 5 71 17 107
26 77 20 327 51 425 53 39 0 147 -8 240 -19z"/>
<path d="M1785 3084 c-52 -12 -192 -59 -205 -69 -8 -6 -28 -17 -45 -25 -61
-29 -145 -116 -181 -189 -24 -47 -29 -72 -32 -156 -4 -86 0 -116 22 -200 46
-173 109 -275 206 -333 43 -26 50 -27 180 -26 153 1 224 19 317 80 28 19 55
34 60 34 4 0 14 9 21 20 7 11 17 20 23 20 14 0 89 74 89 87 0 6 8 18 19 27 10
9 26 43 36 74 10 31 21 62 26 67 4 6 15 65 25 132 16 114 16 127 1 204 -9 45
-24 90 -32 99 -8 9 -15 21 -15 26 0 19 -77 81 -130 104 -49 22 -72 24 -210 26
-85 2 -164 1 -175 -2z"/>
<path d="M3000 3080 c-59 -15 -130 -49 -136 -65 -4 -8 -12 -15 -18 -15 -7 0
-19 -12 -26 -27 -8 -16 -20 -35 -26 -43 -17 -20 -44 -141 -44 -193 0 -73 29
-218 56 -291 33 -84 59 -125 116 -177 66 -60 75 -67 110 -85 18 -9 44 -25 58
-35 59 -42 149 -62 285 -63 125 -1 132 0 180 27 59 34 117 94 135 139 7 18 19
40 25 48 7 8 25 60 41 115 24 84 29 118 29 215 0 106 -2 119 -28 171 -26 50
-63 95 -125 152 -29 27 -104 64 -197 99 -74 28 -91 30 -240 34 -88 2 -176 -1
-195 -6z"/>
<path d="M2469 2044 c-73 -50 -105 -81 -134 -130 -36 -61 -33 -86 14 -123 42
-33 75 -39 106 -18 59 40 125 40 197 1 38 -21 60 -17 106 16 51 37 54 67 13
131 -33 51 -55 72 -130 123 -69 47 -103 47 -172 0z"/>
</g>
</svg>
