<?xml version="1.0" standalone="no"?>
<!DOCTYPE svg PUBLIC "-//W3C//DTD SVG 20010904//EN"
 "http://www.w3.org/TR/2001/REC-SVG-20010904/DTD/svg10.dtd">
<svg version="1.0" xmlns="http://www.w3.org/2000/svg"
 width="700.000000pt" height="700.000000pt" viewBox="0 0 700.000000 700.000000"
 preserveAspectRatio="xMidYMid meet">
<metadata>
Created by potrace 1.14, written by Peter Selinger 2001-2017
</metadata>
<g transform="translate(0.000000,700.000000) scale(0.100000,-0.100000)"
fill="#000000" stroke="none">
<path d="M3299 6996 c-2 -2 -42 -7 -89 -10 -47 -4 -94 -9 -105 -11 -11 -2 -42
-7 -70 -10 -27 -3 -59 -8 -70 -10 -11 -3 -32 -7 -47 -10 -67 -12 -87 -17 -163
-36 -88 -22 -304 -88 -320 -97 -5 -4 -14 -7 -20 -8 -43 -7 -337 -147 -470
-223 -52 -30 -268 -175 -297 -200 -13 -10 -59 -48 -103 -83 -74 -58 -324 -301
-370 -358 -11 -14 -47 -59 -81 -100 -222 -275 -413 -629 -522 -970 -30 -94
-76 -266 -86 -325 -3 -16 -8 -39 -10 -50 -4 -22 -23 -140 -30 -195 -25 -173
-25 -523 -1 -725 16 -128 21 -159 36 -225 8 -39 6 -61 -15 -144 -47 -181 -53
-377 -15 -556 27 -132 43 -179 105 -305 97 -198 240 -359 427 -479 144 -91
362 -168 512 -180 28 -2 75 -7 105 -11 l55 -7 -1 -422 c0 -301 4 -441 13 -491
27 -149 137 -312 266 -393 95 -60 478 -202 637 -237 28 -6 163 -38 190 -45 19
-5 51 -12 70 -15 19 -3 60 -10 90 -15 30 -5 78 -12 105 -15 28 -3 61 -8 75
-10 144 -26 722 -26 802 0 7 2 38 6 68 9 75 8 100 12 300 52 14 3 52 12 85 21
33 8 65 16 70 17 172 39 543 175 639 236 127 80 227 220 263 368 14 56 16 136
18 499 0 238 3 435 6 438 6 6 43 11 144 20 89 8 239 47 335 86 408 169 690
547 737 989 15 143 5 303 -28 425 -23 86 -27 128 -15 190 4 22 9 51 11 65 34
187 48 496 32 715 -36 489 -194 975 -447 1380 -58 93 -146 223 -159 235 -3 3
-28 34 -56 70 -74 97 -98 123 -240 265 -396 396 -857 658 -1415 804 -41 11
-92 22 -114 25 -21 4 -41 8 -45 10 -3 2 -31 7 -61 11 -30 4 -57 8 -60 10 -3 1
-36 6 -75 10 -38 4 -83 9 -100 12 -34 5 -491 14 -496 9z m341 -410 c130 -7
214 -14 248 -22 13 -2 43 -7 65 -10 131 -17 388 -92 557 -161 412 -169 802
-462 1069 -803 46 -58 89 -113 97 -123 8 -9 14 -20 14 -24 0 -3 7 -15 17 -25
9 -10 21 -27 27 -37 6 -10 34 -58 63 -105 139 -230 272 -576 319 -831 31 -172
48 -342 48 -505 0 -102 -11 -295 -19 -342 -2 -13 -11 -63 -19 -113 -9 -49 -21
-121 -27 -158 -11 -64 -11 -72 14 -145 54 -155 64 -309 32 -460 -17 -81 -60
-198 -81 -223 -8 -8 -14 -20 -14 -25 0 -13 -86 -119 -136 -168 -87 -85 -231
-163 -359 -195 -93 -23 -198 -28 -401 -19 -64 3 -75 0 -119 -27 -35 -21 -56
-45 -74 -80 l-26 -49 0 -555 c-1 -517 -2 -559 -19 -594 -21 -43 -66 -84 -116
-105 -42 -18 -259 -92 -270 -92 -4 0 -7 98 -7 217 0 270 -4 298 -49 351 -93
109 -263 89 -334 -38 -24 -45 -24 -46 -25 -342 0 -163 -3 -299 -5 -301 -3 -3
-48 -12 -100 -20 -91 -15 -128 -20 -251 -32 l-56 -6 0 329 c-1 312 -2 330 -21
369 -76 148 -280 149 -362 3 l-24 -45 -1 -325 0 -325 -39 -1 c-42 0 -189 17
-256 31 -14 3 -43 8 -65 11 -22 4 -43 11 -46 17 -4 5 -7 138 -7 296 0 245 -2
292 -16 326 -44 103 -151 149 -259 111 -47 -17 -72 -39 -105 -91 -26 -40 -26
-41 -28 -280 -1 -132 -3 -245 -3 -252 -1 -12 -19 -6 -221 70 -103 39 -161 90
-178 158 -7 29 -11 224 -11 581 0 579 0 573 -54 631 -45 49 -94 66 -167 59
-384 -35 -661 69 -847 318 -58 78 -86 133 -116 230 -55 175 -55 342 -1 507 29
88 36 145 24 200 -11 49 -18 84 -30 163 -6 36 -13 75 -15 88 -25 142 -24 455
1 672 9 78 54 298 80 388 101 353 299 721 540 1002 140 164 375 371 563 495
271 178 644 334 911 380 19 3 53 10 75 15 22 5 60 11 85 14 25 4 63 8 85 11
22 3 99 8 170 11 72 4 132 8 133 10 2 1 9 1 15 -1 7 -2 64 -6 127 -9z"/>
<path d="M2179 4536 c-2 -2 -29 -6 -60 -9 -31 -4 -68 -11 -82 -16 -15 -6 -27
-8 -27 -6 0 7 -139 -45 -195 -72 -141 -71 -310 -217 -390 -338 -368 -557 -149
-1277 466 -1533 206 -85 480 -94 699 -22 425 141 715 551 704 1000 -2 73 -4
91 -19 175 -55 305 -286 595 -581 732 -118 54 -249 84 -390 89 -66 2 -122 2
-125 0z m237 -423 c205 -53 367 -204 440 -408 18 -51 25 -96 29 -180 13 -329
-273 -627 -605 -627 -105 -1 -181 17 -280 64 -69 33 -100 56 -165 122 -132
133 -186 270 -180 455 8 265 195 498 459 572 76 21 225 22 302 2z"/>
<path d="M4539 4520 c-154 -32 -258 -75 -388 -163 -220 -148 -377 -389 -427
-655 -62 -333 41 -665 281 -908 195 -197 435 -299 712 -303 231 -4 444 66 630
206 197 148 349 389 387 613 19 107 22 143 20 225 -7 271 -109 510 -299 700
-153 152 -327 245 -550 290 -72 15 -281 12 -366 -5z m338 -407 c171 -43 324
-167 402 -324 54 -110 71 -188 66 -304 -9 -171 -80 -321 -206 -431 -282 -246
-698 -196 -913 110 -71 101 -105 200 -111 320 -12 244 134 485 360 591 112 53
283 69 402 38z"/>
<path d="M3411 2467 c-47 -24 -465 -439 -497 -493 -62 -105 -15 -241 99 -289
33 -14 100 -16 492 -16 491 0 483 -1 543 55 61 54 83 166 47 236 -9 19 -119
137 -243 262 -176 177 -236 232 -274 248 -58 25 -116 24 -167 -3z"/>
</g>
</svg>
