<svg version="1" xmlns="http://www.w3.org/2000/svg" width="933.333" height="933.333" viewBox="0 0 700.000000 700.000000"><path d="M622.5 30.1c-2 .5-17.5 14.7-44.5 40.7-22.8 21.9-49.6 47-59.5 55.8-46.6 41.4-138.4 122.8-297 263.4-12.7 11.3-56.6 50.1-97.6 86.3-40.9 36.3-76.5 68.2-79.1 71-9.5 10.4-15 24.3-15.1 38.6-.1 10.6 1.4 17.4 6.1 27.1 3.2 6.5 5.9 9.8 21.2 25.4 19.3 19.7 26.4 25.1 38.5 29.1 17.6 5.9 39.4 2.2 53.7-9.2 2-1.7 44.7-39.4 94.8-83.9 50.1-44.5 91.5-81 91.9-81.2.5-.2 17.2 15.1 37.2 33.9 30.1 28.2 36.7 34.9 37.8 38.3 2.3 6.3 1.9 36.9-.5 51.1-2.4 13.5-1.7 21 2.5 30.1 7.8 16.7 27.3 26.6 46.3 23.5 16.8-2.8 28.5-12.4 33.7-27.9 2.7-7.9 2.7-15.6.2-32.2-7.7-50.5-3.6-92.6 12.3-125.5 10.3-21.2 23.1-37.3 53.4-67 31.4-30.9 46.8-49.3 63.4-76 29-46.4 44.2-93.5 47.9-148.5 2.9-43.6-6.7-96.9-26.3-146.5-4.4-11.1-7.4-15-12.7-16.5-4.1-1.1-4.5-1.1-8.6.1zm-71.7 122.3c10.8 16.2 17.1 33.1 15.6 41.2-.9 4.9-4.2 7-14.7 9.4-15.4 3.5-25.1 10.7-31.9 23.7-7.1 13.4-9.3 27.2-10.3 64-.3 12.2-1.2 24.3-1.8 27-1.4 5.4-2 5.9-27 20.6-32.2 18.9-51.9 36.9-68.7 62.8-12.1 18.8-20.3 38.5-24.1 58-1.7 8.9-2 13.9-1.7 25.8l.3 14.8-6.1-5.6C358 473.4 268 388.5 268 387.9c0-.3 14.7-13.7 32.8-29.6 18-15.9 49.4-43.8 69.7-61.8 20.4-18.1 50.1-44.4 66-58.5 16-14.2 46.6-41.3 68-60.3 21.5-19.1 39.3-34.7 39.6-34.7.3 0 3.3 4.2 6.7 9.4zM259.5 420.5c11.4 11 12.8 12.6 11.3 13.7-.9.7-38.8 34.4-84.3 74.8-73.5 65.3-83.2 73.6-87.3 74.6-5.8 1.5-10.6 6.5-11.6 12-.4 2.1-1.8 6.2-3.2 9.1-1.3 2.9-2.7 7.3-3.1 9.8-.3 2.5-.9 4.8-1.3 5-1.4.9-16.2-15.6-18.6-20.8-3.3-7.2-3.3-17.2 0-24.2 2.9-6.2 5.4-8.6 50.1-48.1 54.1-47.8 56.1-49.6 96.4-85.3 20.5-18.2 37.6-33.1 38-33 .3 0 6.4 5.6 13.6 12.4zM606.5 439c-3 1.2-12.1 11.3-22.2 24.7-22.1 29.3-31.5 50.3-29.8 66.3 1.6 14.8 7.9 27.5 18.6 37.4 22.2 20.5 55.8 20.8 78.1.7 14.9-13.5 22.1-33.4 18.4-51.1-1.8-8.8-9.2-24.5-17.2-36.8-11-16.9-27.4-37-32.8-40.3-3.2-2-9.5-2.4-13.1-.9z"/></svg>